<svg xmlns="http://www.w3.org/2000/svg" viewBox="0 0 58.26 58.26"><defs><style>.cls-1{fill:#bababa;}.cls-2{fill:none;}</style></defs><g id="Calque_2" data-name="Calque 2"><g id="Calque_1-2" data-name="Calque 1"><path class="cls-1" d="M32.07,40.33a6.77,6.77,0,0,0,3.21-.57A2.59,2.59,0,0,0,36,37.55V20.71q0-1.71-.75-2.22a6.59,6.59,0,0,0-3.2-.56V16.18H46q10.62,0,10.62,6.17a5,5,0,0,1-1.86,4,9.1,9.1,0,0,1-5,1.94,11.49,11.49,0,0,1,6,2.16A5.58,5.58,0,0,1,57.89,35a5.74,5.74,0,0,1-3.1,5.36q-3.1,1.74-9.56,1.74H32.07Zm8.25-12.88h5.33a8.56,8.56,0,0,0,4.81-1.07A3.85,3.85,0,0,0,52,23a4.09,4.09,0,0,0-1.54-3.52,7.86,7.86,0,0,0-4.73-1.15H40.32Zm0,12.43h4.94q4.27,0,6.1-1.2a4.44,4.44,0,0,0,1.82-4,4.23,4.23,0,0,0-1.83-3.86q-1.85-1.15-6.09-1.16H40.32Z"/><path class="cls-1" d="M9.86,38.06a10,10,0,0,1-4.81-1.17,8.79,8.79,0,0,1-3.42-3.23A8.62,8.62,0,0,1,.37,29.08,8.41,8.41,0,0,1,3,22.74,9.35,9.35,0,0,1,9.75,20.2a6.93,6.93,0,0,1,4.15,1.29l1.34-1.29h.9l1.92,5.6h-1.7a11.49,11.49,0,0,0-3.3-3A6.57,6.57,0,0,0,10,22a5.18,5.18,0,0,0-4.21,1.81A7.94,7.94,0,0,0,4.26,29a8.12,8.12,0,0,0,1.63,5.37,5.58,5.58,0,0,0,4.51,1.93,4.78,4.78,0,0,0,3.12-1,3.29,3.29,0,0,0,1.14-2.67V32.3c0-.68-.16-1.12-.49-1.32A5.12,5.12,0,0,0,12,30.64V29.19h8.39v1.45a3.45,3.45,0,0,0-1.81.36c-.29.21-.43.69-.43,1.44v5.34h-1l-1.88-1.73A7.28,7.28,0,0,1,9.86,38.06Z"/><path class="cls-1" d="M27.1,34.89a.72.72,0,0,1-.59-.25,1.05,1.05,0,0,1-.22-.72,34.89,34.89,0,0,1,.28-4.15l.24-2.13-.8.17a10.9,10.9,0,0,1-2,.27.78.78,0,0,1-.56-.2.69.69,0,0,1-.21-.52.69.69,0,0,1,.21-.53.75.75,0,0,1,.56-.21,9.73,9.73,0,0,1,2,.28l.77.16-.08-.36a20,20,0,0,1-.39-2.45.91.91,0,0,1,.21-.64.73.73,0,0,1,.58-.24.75.75,0,0,1,.58.23.94.94,0,0,1,.21.65,20,20,0,0,1-.39,2.45l-.08.36.76-.16a9.81,9.81,0,0,1,2-.28.75.75,0,0,1,.56.21.69.69,0,0,1,.21.53.69.69,0,0,1-.21.52.78.78,0,0,1-.56.2,10.88,10.88,0,0,1-2-.27l-.79-.17.24,2.13a34.89,34.89,0,0,1,.28,4.15,1,1,0,0,1-.22.72A.72.72,0,0,1,27.1,34.89Z"/><rect class="cls-2" width="58.26" height="58.26"/></g></g></svg>