<svg xmlns="http://www.w3.org/2000/svg" viewBox="0 0 57.53 25.9"><defs><style>.cls-1{fill:#1d1d1b;}</style></defs><g id="Calque_2" data-name="Calque 2"><g id="Calque_1-2" data-name="Calque 1"><path class="cls-1" d="M31.7,24.15a6.77,6.77,0,0,0,3.21-.57c.5-.35.74-1.08.74-2.21V4.53q0-1.71-.75-2.22a6.56,6.56,0,0,0-3.2-.56V0H45.58Q56.2,0,56.2,6.17a5,5,0,0,1-1.85,4,9.19,9.19,0,0,1-5,1.95,11.39,11.39,0,0,1,6,2.16,5.55,5.55,0,0,1,2.1,4.53,5.75,5.75,0,0,1-3.11,5.36c-2.07,1.16-5.25,1.74-9.56,1.74H31.7ZM40,11.27h5.34a8.52,8.52,0,0,0,4.8-1.07,3.83,3.83,0,0,0,1.54-3.39,4.09,4.09,0,0,0-1.54-3.52,7.86,7.86,0,0,0-4.73-1.15H40ZM40,23.7H44.9q4.26,0,6.09-1.2a4.45,4.45,0,0,0,1.83-4A4.21,4.21,0,0,0,51,14.64c-1.23-.78-3.25-1.17-6.08-1.17H40Z"/><path class="cls-1" d="M9.5,21.88a10,10,0,0,1-4.82-1.17,8.86,8.86,0,0,1-3.42-3.23A8.61,8.61,0,0,1,0,12.91,8.42,8.42,0,0,1,2.65,6.56,9.38,9.38,0,0,1,9.39,4a7,7,0,0,1,4.15,1.29L14.87,4h.9l1.93,5.6H16a11.63,11.63,0,0,0-3.31-3,6.65,6.65,0,0,0-3.08-.76A5.19,5.19,0,0,0,5.39,7.64,8,8,0,0,0,3.9,12.8a8.11,8.11,0,0,0,1.62,5.36A5.58,5.58,0,0,0,10,20.09a4.75,4.75,0,0,0,3.12-.95,3.24,3.24,0,0,0,1.14-2.67v-.35c0-.68-.16-1.12-.49-1.32a5.29,5.29,0,0,0-2.22-.34V13H20v1.44a3.45,3.45,0,0,0-1.81.36c-.28.21-.43.69-.43,1.45v5.34h-1l-1.88-1.74A7.27,7.27,0,0,1,9.5,21.88Z"/><path class="cls-1" d="M26.73,18.71a.74.74,0,0,1-.59-.25,1.1,1.1,0,0,1-.22-.72,34.89,34.89,0,0,1,.28-4.15l.24-2.13-.79.17a11,11,0,0,1-2,.27.76.76,0,0,1-.56-.2.69.69,0,0,1-.21-.52.69.69,0,0,1,.21-.53.76.76,0,0,1,.56-.21,9.9,9.9,0,0,1,2,.28l.76.16-.08-.36a19.72,19.72,0,0,1-.39-2.45.91.91,0,0,1,.21-.64.75.75,0,0,1,.58-.24.78.78,0,0,1,.59.23.94.94,0,0,1,.21.65,20.69,20.69,0,0,1-.4,2.45l-.07.36.75-.16a9.81,9.81,0,0,1,2-.28.77.77,0,0,1,.57.21.69.69,0,0,1,.21.53.69.69,0,0,1-.21.52.76.76,0,0,1-.57.2,11,11,0,0,1-2-.27L27,11.46l.25,2.13a36.91,36.91,0,0,1,.27,4.15,1,1,0,0,1-.22.72A.72.72,0,0,1,26.73,18.71Z"/></g></g></svg>