<svg xmlns="http://www.w3.org/2000/svg" viewBox="0 0 21.76 5.59"><defs><style>.cls-1{fill:#1d1d1b;}</style></defs><g id="Calque_2" data-name="Calque 2"><g id="Calque_1-2" data-name="Calque 1"><path class="cls-1" d="M3.46,5.05a.56.56,0,0,0,.32,0,.27.27,0,0,0,.1-.24V4.62a.77.77,0,0,0-.06-.15,1.34,1.34,0,0,0-.16-.22l-.84-1-.77.94a1,1,0,0,0-.31.58q0,.31.42.3v.48H0V5a1.41,1.41,0,0,0,.6-.19,3.2,3.2,0,0,0,.66-.6L2.51,2.87,1.2,1.35A5.23,5.23,0,0,0,.62.74.72.72,0,0,0,.18.62V.13H2.77V.61a.73.73,0,0,0-.36.08A.27.27,0,0,0,2.3.94a1,1,0,0,0,.31.56l.63.71.63-.73A1,1,0,0,0,4.18.9a.21.21,0,0,0-.1-.2A.82.82,0,0,0,3.76.61V.13H5.82V.62a1.2,1.2,0,0,0-.55.19,3.38,3.38,0,0,0-.66.62L3.56,2.57,5,4.29a3.73,3.73,0,0,0,.6.63A.92.92,0,0,0,6.13,5v.49H3.46Z"/><path class="cls-1" d="M7.32,5l.37,0a.5.5,0,0,0,.23-.09.33.33,0,0,0,.13-.22,1.33,1.33,0,0,0,0-.39V1.38a1.44,1.44,0,0,0,0-.41A.35.35,0,0,0,7.92.74.5.5,0,0,0,7.69.65l-.37,0V.13H9.09l3,3.65V1.35A1.45,1.45,0,0,0,12,1a.37.37,0,0,0-.13-.22.5.5,0,0,0-.23-.09l-.37,0V.13h2.22V.62l-.38,0a.5.5,0,0,0-.23.09.38.38,0,0,0-.14.22,2.1,2.1,0,0,0,0,.4V5.53h-.51L8.76,1.32v3a2.1,2.1,0,0,0,0,.4.38.38,0,0,0,.13.21A.5.5,0,0,0,9.15,5l.38,0v.49H7.32Zm6.58-3A2.05,2.05,0,0,1,14.47.59,1.87,1.87,0,0,1,15.86,0a1.83,1.83,0,0,1,1.38.59,2.08,2.08,0,0,1,.55,1.47,2.09,2.09,0,0,1-.55,1.48,1.8,1.8,0,0,1-1.38.6,1.84,1.84,0,0,1-1.39-.6A2.06,2.06,0,0,1,13.9,2.06Zm.17,3.47V5h3.6v.54Zm.8-3.47a2.23,2.23,0,0,0,.25,1.18.82.82,0,0,0,.74.4.81.81,0,0,0,.73-.4,2.34,2.34,0,0,0,.24-1.18A2.32,2.32,0,0,0,16.59.89a.83.83,0,0,0-.73-.4.84.84,0,0,0-.74.4A2.21,2.21,0,0,0,14.87,2.06Z"/><path class="cls-1" d="M19.82,5.59a1.77,1.77,0,0,1-.92-.23.63.63,0,0,1-.37-.53.25.25,0,0,1,.11-.22.4.4,0,0,1,.3-.1.29.29,0,0,1,.16,0l.1.07.09.11s.06.07.06.08a.84.84,0,0,0,.68.32.77.77,0,0,0,.55-.21.7.7,0,0,0,.23-.55.65.65,0,0,0-.35-.63,2.27,2.27,0,0,0-1.07-.19H19l.51-1.93h1.13a2.33,2.33,0,0,0,.5,0,.46.46,0,0,0,.22-.19h.43l-.26.86H19.79l-.17.62h.11A2.31,2.31,0,0,1,21,3.2a1,1,0,0,1,.5.9,1.39,1.39,0,0,1-.48,1A1.72,1.72,0,0,1,19.82,5.59Z"/></g></g></svg>