<svg xmlns="http://www.w3.org/2000/svg" viewBox="0 0 14.91 7.8"><defs><style>.cls-1{fill:#1d1d1b;}</style></defs><g id="Calque_2" data-name="Calque 2"><g id="Calque_1-2" data-name="Calque 1"><path class="cls-1" d="M7.14,7.27a2,2,0,0,0,1-.17.78.78,0,0,0,.23-.67V1.37A.8.8,0,0,0,8.1.69a2.08,2.08,0,0,0-1-.16V0h4.17c2.14,0,3.2.62,3.2,1.86A1.5,1.5,0,0,1,14,3.06a2.68,2.68,0,0,1-1.49.58,3.49,3.49,0,0,1,1.82.65,1.69,1.69,0,0,1,.63,1.37A1.72,1.72,0,0,1,14,7.27a6.12,6.12,0,0,1-2.88.53h-4ZM9.62,3.39h1.61a2.5,2.5,0,0,0,1.44-.32,1.15,1.15,0,0,0,.47-1A1.23,1.23,0,0,0,12.67,1,2.35,2.35,0,0,0,11.25.64H9.62Zm0,3.75h1.49a3.34,3.34,0,0,0,1.83-.37,1.32,1.32,0,0,0,.55-1.2,1.26,1.26,0,0,0-.55-1.16,3.5,3.5,0,0,0-1.83-.36H9.62Z"/><path class="cls-1" d="M2.86,6.59a3.08,3.08,0,0,1-1.45-.35,2.63,2.63,0,0,1-1-1A2.59,2.59,0,0,1,0,3.89,2.54,2.54,0,0,1,.8,2a2.82,2.82,0,0,1,2-.77,2.11,2.11,0,0,1,1.25.39l.4-.39h.27L5.33,2.9H4.82a3.8,3.8,0,0,0-1-.92,2,2,0,0,0-.93-.22,1.57,1.57,0,0,0-1.27.54,2.37,2.37,0,0,0-.45,1.55,2.49,2.49,0,0,0,.49,1.62A1.71,1.71,0,0,0,3,6.05,1.43,1.43,0,0,0,4,5.76,1,1,0,0,0,4.3,5V4.85q0-.3-.15-.39a1.44,1.44,0,0,0-.66-.11V3.92H6v.43a1.15,1.15,0,0,0-.54.11c-.09.07-.13.21-.13.44V6.5H5L4.48,6A2.19,2.19,0,0,1,2.86,6.59Z"/></g></g></svg>