<svg xmlns="http://www.w3.org/2000/svg" viewBox="0 0 69.58 24.55"><defs><style>.cls-1{fill:#1d1d1b;}</style></defs><g id="Calque_2" data-name="Calque 2"><g id="Calque_1-2" data-name="Calque 1"><path class="cls-1" d="M10.79,21.72a11.41,11.41,0,0,1-5.47-1.33,10.13,10.13,0,0,1-3.89-3.68A9.79,9.79,0,0,1,0,11.52,9.58,9.58,0,0,1,3,4.31a10.63,10.63,0,0,1,7.65-2.88A7.9,7.9,0,0,1,15.38,2.9l1.51-1.47h1L20.1,7.79H18.17a13.45,13.45,0,0,0-3.75-3.45,7.59,7.59,0,0,0-3.51-.86A5.86,5.86,0,0,0,6.13,5.54a8.91,8.91,0,0,0-1.7,5.85,9.18,9.18,0,0,0,1.84,6.1,6.35,6.35,0,0,0,5.12,2.19,5.39,5.39,0,0,0,3.55-1.08,3.71,3.71,0,0,0,1.3-3v-.4q0-1.15-.57-1.5a6,6,0,0,0-2.51-.39V11.65h9.52v1.63a4,4,0,0,0-2,.41,2,2,0,0,0-.5,1.65V21.4H19l-2.14-2A8.22,8.22,0,0,1,10.79,21.72Z"/><path class="cls-1" d="M34.88,24.55A1.58,1.58,0,0,1,33.62,24a2.26,2.26,0,0,1-.46-1.53,77.59,77.59,0,0,1,.59-8.84l.52-4.55-1.7.38a23.44,23.44,0,0,1-4.31.57,1.62,1.62,0,0,1-1.2-.43,1.48,1.48,0,0,1-.45-1.11,1.53,1.53,0,0,1,.45-1.14,1.62,1.62,0,0,1,1.2-.43,21.15,21.15,0,0,1,4.31.59l1.63.34L34,7.09a40.85,40.85,0,0,1-.85-5.21A2,2,0,0,1,33.65.5,1.58,1.58,0,0,1,34.88,0a1.61,1.61,0,0,1,1.25.49,2,2,0,0,1,.45,1.39,42,42,0,0,1-.84,5.21l-.17.77,1.61-.34a21.22,21.22,0,0,1,4.34-.59,1.61,1.61,0,0,1,1.19.43,1.53,1.53,0,0,1,.45,1.14,1.48,1.48,0,0,1-.45,1.11,1.61,1.61,0,0,1-1.19.43,23.6,23.6,0,0,1-4.34-.57L35.5,9.09,36,13.64a75.35,75.35,0,0,1,.59,8.84A2.25,2.25,0,0,1,36.15,24,1.59,1.59,0,0,1,34.88,24.55Z"/><path class="cls-1" d="M48.49,19.52a5.37,5.37,0,0,0,2.57-.41,1.83,1.83,0,0,0,.64-1.65V5.73a1.86,1.86,0,0,0-.63-1.67,5.65,5.65,0,0,0-2.58-.45V1.89H60.14c2.9,0,5,.41,6.38,1.23a3.77,3.77,0,0,1,2,3.39,3.59,3.59,0,0,1-1.55,3,8,8,0,0,1-4.15,1.39,9.55,9.55,0,0,1,5,1.51A4.17,4.17,0,0,1,69.58,16a4.33,4.33,0,0,1-2.32,3.89c-1.54.93-4,1.4-7.2,1.4H48.49Zm7.22-9.36h4.07a6.11,6.11,0,0,0,3.44-.75A2.74,2.74,0,0,0,64.29,7a2.78,2.78,0,0,0-1-2.34,5.74,5.74,0,0,0-3.47-.79H55.71Zm0,9.15H60a7.33,7.33,0,0,0,4-.85,3.12,3.12,0,0,0,1.23-2.76A3,3,0,0,0,64,12.92a9.27,9.27,0,0,0-4.5-.79H55.71Z"/></g></g></svg>