<svg xmlns="http://www.w3.org/2000/svg" viewBox="0 0 22.17 20.75"><defs><style>.cls-1{fill:#1d1d1b;}.cls-2{fill:none;}</style></defs><g id="Calque_2" data-name="Calque 2"><g id="Calque_1-2" data-name="Calque 1"><path class="cls-1" d="M20.48,10.91,22.17,8,19,6.12l-.45.77A6.22,6.22,0,0,0,15,6.53a5.77,5.77,0,0,0-3.3,2.09A4,4,0,0,1,11.65,6a4.43,4.43,0,0,1,1.29-1.86l.37.64,3.21-1.86L14.81,0l-3.2,1.86.45.77A6.19,6.19,0,0,0,10,5.46a5.73,5.73,0,0,0,.15,3.9A4,4,0,0,1,7.86,8.13a4.38,4.38,0,0,1-1-2.05h.74V2.38H4.24v3.7h.89a6.36,6.36,0,0,0,1.41,3.2A5.75,5.75,0,0,0,10,11.1a4,4,0,0,1-2.21,1.41,4.35,4.35,0,0,1-2.26-.18l.36-.64L2.69,9.87,1,12.83l3.22,1.82.44-.77a6.23,6.23,0,0,0,3.48.34,5.71,5.71,0,0,0,3.28-2.11,4,4,0,0,1,.11,2.6,4.43,4.43,0,0,1-1.29,1.86l-.37-.63L6.7,17.81l1.72,2.94,3.19-1.88-.45-.77a6.21,6.21,0,0,0,2-2.83A5.82,5.82,0,0,0,13,11.36a4,4,0,0,1,2.3,1.22,4.39,4.39,0,0,1,1,2h-.73l0,3.7,3.4,0,0-3.7h-.89a6.22,6.22,0,0,0-1.43-3.19,5.77,5.77,0,0,0-3.46-1.81,3.94,3.94,0,0,1,2.2-1.38,4.22,4.22,0,0,1,2.25.19l-.36.64Z"/><rect class="cls-2" width="22.17" height="20.75"/></g></g></svg>