<svg xmlns="http://www.w3.org/2000/svg" viewBox="0 0 16.55 24.55"><defs><style>.cls-1{fill:#1d1d1b;}</style></defs><g id="Calque_2" data-name="Calque 2"><g id="Calque_1-2" data-name="Calque 1"><path class="cls-1" d="M8.27,24.55A1.58,1.58,0,0,1,7,24a2.26,2.26,0,0,1-.46-1.53,77.59,77.59,0,0,1,.59-8.84l.52-4.55L6,9.47A23.44,23.44,0,0,1,1.65,10a1.65,1.65,0,0,1-1.2-.43A1.48,1.48,0,0,1,0,8.5,1.53,1.53,0,0,1,.45,7.36a1.65,1.65,0,0,1,1.2-.43A21.07,21.07,0,0,1,6,7.52l1.63.34-.16-.77a42,42,0,0,1-.84-5.21A2,2,0,0,1,7,.5,1.6,1.6,0,0,1,8.27,0,1.61,1.61,0,0,1,9.52.49,2,2,0,0,1,10,1.88a42,42,0,0,1-.84,5.21L9,7.86l1.61-.34a21.05,21.05,0,0,1,4.33-.59,1.65,1.65,0,0,1,1.2.43,1.56,1.56,0,0,1,.44,1.14,1.51,1.51,0,0,1-.44,1.11,1.65,1.65,0,0,1-1.2.43,23.41,23.41,0,0,1-4.33-.57L8.89,9.09l.52,4.55A75.35,75.35,0,0,1,10,22.48,2.25,2.25,0,0,1,9.54,24,1.59,1.59,0,0,1,8.27,24.55Z"/></g></g></svg>