<svg xmlns="http://www.w3.org/2000/svg" viewBox="0 0 20.82 20.41"><defs><style>.cls-1{fill:#1d1d1b;}</style></defs><g id="Calque_2" data-name="Calque 2"><g id="Calque_1-2" data-name="Calque 1"><path class="cls-1" d="M19.25,10.57l1.57-2.74-3-1.71-.44.76a6.09,6.09,0,0,0-3.5-.4A5.76,5.76,0,0,0,10.51,8.7a4.23,4.23,0,0,1-.17-2.89,4.68,4.68,0,0,1,1.45-2l.38.66,3-1.73L13.58,0l-3,1.73.44.76a6.19,6.19,0,0,0-2.1,2.84,5.7,5.7,0,0,0,.23,4A4.19,4.19,0,0,1,6.58,8a4.55,4.55,0,0,1-1-2.25h.76V2.33H3.18V5.79h.87A6.2,6.2,0,0,0,5.45,9a5.71,5.71,0,0,0,3.62,1.82,4.23,4.23,0,0,1-2.42,1.62,4.52,4.52,0,0,1-2.47-.23l.38-.66-3-1.7L0,12.61l3,1.7.43-.76A6.1,6.1,0,0,0,7,13.93a5.75,5.75,0,0,0,3.35-2.24,4.18,4.18,0,0,1,.18,2.89,4.6,4.6,0,0,1-1.43,2l-.39-.66-3,1.75,1.6,2.72,3-1.75-.44-.76a6.1,6.1,0,0,0,2.09-2.84,5.74,5.74,0,0,0-.26-4,4.23,4.23,0,0,1,2.6,1.3,4.54,4.54,0,0,1,1,2.25H14.5l0,3.46,3.15,0,0-3.46h-.88a6.09,6.09,0,0,0-1.41-3.23,5.69,5.69,0,0,0-3.61-1.8,4.24,4.24,0,0,1,2.42-1.6,4.55,4.55,0,0,1,2.46.25l-.38.66Z"/></g></g></svg>