<svg xmlns="http://www.w3.org/2000/svg" viewBox="0 0 43.15 29.36"><defs><style>.cls-1{fill:#1d1d1b;}.cls-2{fill:none;}</style></defs><g id="Calque_2" data-name="Calque 2"><g id="Calque_1-2" data-name="Calque 1"><path class="cls-1" d="M28.39,3.82H26.48L22.32,0H11.44l-.95,3.82H5.59l-3,11.93L17.38,29.3h22.8l3-11.92Zm-15.26-2h7l-1.45,6h-7ZM11,20.83,5.31,15.69,6.46,11h2l-1.16,4.8,5.58,5.08Zm4,0L9.31,15.69,10.46,11h2l-1.16,4.8,5.58,5.08Zm4,0-5.65-5.14L14.46,11h2l-1.16,4.8,5.58,5.08Zm4,0-5.65-5.14L18.46,11h2l-1.16,4.8,5.58,5.08Zm4,0-5.65-5.14L22.46,11h2l-1.16,4.8,5.58,5.08Z"/><rect class="cls-2" width="43.15" height="29.36"/></g></g></svg>