<svg xmlns="http://www.w3.org/2000/svg" viewBox="0 0 21.09 19.35"><defs><style>.cls-1{fill:#1d1d1b;}</style></defs><g id="Calque_2" data-name="Calque 2"><g id="Calque_1-2" data-name="Calque 1"><path class="cls-1" d="M0,17.63a5.39,5.39,0,0,0,2.57-.41,1.82,1.82,0,0,0,.64-1.65V3.84a1.86,1.86,0,0,0-.63-1.67A5.65,5.65,0,0,0,0,1.72V0H11.65Q16,0,18,1.23a3.8,3.8,0,0,1,2,3.39,3.62,3.62,0,0,1-1.55,3A8,8,0,0,1,14.35,9a9.59,9.59,0,0,1,5,1.51,4.17,4.17,0,0,1,1.73,3.53A4.33,4.33,0,0,1,18.77,18q-2.32,1.39-7.21,1.4H0ZM7.22,8.27h4.07a6.11,6.11,0,0,0,3.44-.75A2.76,2.76,0,0,0,15.8,5.08a2.78,2.78,0,0,0-1-2.34A5.7,5.7,0,0,0,11.33,2H7.22Zm0,9.15h4.3a7.33,7.33,0,0,0,4-.85,3.12,3.12,0,0,0,1.23-2.76A3,3,0,0,0,15.45,11a9.22,9.22,0,0,0-4.5-.79H7.22Z"/></g></g></svg>