<svg xmlns="http://www.w3.org/2000/svg" viewBox="0 0 22.68 20.29"><defs><style>.cls-1{fill:#1d1d1b;}</style></defs><g id="Calque_2" data-name="Calque 2"><g id="Calque_1-2" data-name="Calque 1"><path class="cls-1" d="M10.79,20.29A11.3,11.3,0,0,1,5.32,19a10.1,10.1,0,0,1-3.89-3.67A9.8,9.8,0,0,1,0,10.09a9.54,9.54,0,0,1,3-7.2A10.59,10.59,0,0,1,10.66,0a7.9,7.9,0,0,1,4.72,1.47L16.89,0h1L20.1,6.36H18.17a13.23,13.23,0,0,0-3.75-3.44,7.47,7.47,0,0,0-3.51-.86A5.85,5.85,0,0,0,6.13,4.11,8.94,8.94,0,0,0,4.43,10a9.17,9.17,0,0,0,1.84,6.09,6.36,6.36,0,0,0,5.12,2.2,5.39,5.39,0,0,0,3.55-1.08,3.74,3.74,0,0,0,1.3-3v-.4q0-1.15-.57-1.5a5.84,5.84,0,0,0-2.51-.38V10.22h9.52v1.64a4,4,0,0,0-2,.4,2,2,0,0,0-.5,1.65V20H19l-2.14-2A8.22,8.22,0,0,1,10.79,20.29Z"/></g></g></svg>